<svg xmlns="http://www.w3.org/2000/svg" width="80" height="48" viewBox="0 0 780 500">
  <path fill="#0066B2" d="m651.1 350.7-58-264.3c-3-11.5-13.1-21.5-26.5-21.5h-96c-10 0-16.9 9.9-13.9 20L553 347.9c3 10.2 14 18 24 18H638c12.9 0 16.1-5.8 13.1-15.2z"/>
  <path fill="#25459B" d="M557 84.9h-97.8L353 350.9h91.6z"/>
  <path fill="#E77B25" d="M145 351.1h87.5L278 84.9h-95.3z"/>
  <path fill="#CA9F3F" d="M342.3 172.3c-93.9-46.5-125.1 42.2-161.3 124.1L172.5 206c-2-14-13.8-26.1-28.9-26.1H44.8l-2.8 10.3c34.9 8.1 72.1 23.3 95.7 38.9 11.1 7.4 14.2 20.6 10.6 34.7l-49.8 152.1H185l72.5-243.5z"/>
</svg>
