<svg width="36" height="36" viewBox="0 0 36 36" fill="none" xmlns="http://www.w3.org/2000/svg">
<g clip-path="url(#clip0_230_2)">
<path d="M18 4C15.2311 4 12.5243 4.82109 10.222 6.35943C7.91973 7.89777 6.12532 10.0843 5.06569 12.6424C4.00607 15.2006 3.72882 18.0155 4.26901 20.7313C4.80921 23.447 6.14258 25.9416 8.10051 27.8995C10.0584 29.8574 12.553 31.1908 15.2687 31.731C17.9845 32.2712 20.7994 31.9939 23.3576 30.9343C25.9157 29.8747 28.1022 28.0803 29.6406 25.778C31.1789 23.4757 32 20.7689 32 18C32 14.287 30.525 10.726 27.8995 8.1005C25.274 5.475 21.713 4 18 4Z" fill="black"/>
</g>
<defs>
<clipPath id="clip0_230_2">
<rect width="36" height="36" fill="white"/>
</clipPath>
</defs>
</svg>
